# xmcd CD database file
#
# Track frame offsets:
#	187
#	11157
#	25825
#	46927
#	72387
#	87257
#	107042
#	119982
#	157907
#	173977
#
# Disc length: 2475 seconds
#
# Revision: 0
# Processed by: cddbd v1.5PL3 Copyright (c) Steve Scherf et al.
# Submitted via: CDex 1.50
#
DISCID=8309a90a
DTITLE=山寺宏一＆かないみか - ラジオマガジン
DYEAR=1993
DGENRE=Other
TTITLE0=プロローグ
TTITLE1=CRDショッピング
TTITLE2=太陽系ブルース
TTITLE3=この人は偉い
TTITLE4=愛は泥沼
TTITLE5=クロスでクエスト
TTITLE6=ミステリアスゾーン
TTITLE7=CRD通信
TTITLE8=LOVE IS EVERYTHING
TTITLE9=エピローグ
EXTD=YEAR: 1993
EXTT0=
EXTT1=
EXTT2=
EXTT3=
EXTT4=
EXTT5=
EXTT6=
EXTT7=
EXTT8=
EXTT9=
PLAYORDER=
